<svg width="469" height="147" viewBox="0 0 469 147" fill="none" xmlns="http://www.w3.org/2000/svg">
<g clip-path="url(#clip0_11_10)">
<path d="M65.4205 122.152C60.5565 122.152 55.6925 121.981 50.8285 121.64C46.0498 121.384 41.0578 120.701 35.8525 119.592V33.576C39.9485 32.808 44.4285 32.2533 49.2925 31.912C54.1565 31.4853 58.6792 31.272 62.8605 31.272C68.4925 31.272 73.6552 31.6987 78.3485 32.552C83.1272 33.32 87.2232 34.6853 90.6365 36.648C94.0498 38.6107 96.6952 41.2133 98.5725 44.456C100.535 47.6133 101.517 51.5387 101.517 56.232C101.517 63.3147 98.1032 68.904 91.2765 73C96.9085 75.1333 100.749 78.0347 102.797 81.704C104.845 85.3733 105.869 89.512 105.869 94.12C105.869 103.421 102.455 110.419 95.6285 115.112C88.8872 119.805 78.8178 122.152 65.4205 122.152ZM55.3085 82.344V105.256C56.7592 105.427 58.3378 105.555 60.0445 105.64C61.7512 105.725 63.6285 105.768 65.6765 105.768C71.6498 105.768 76.4712 104.915 80.1405 103.208C83.8098 101.501 85.6445 98.344 85.6445 93.736C85.6445 89.64 84.1085 86.7387 81.0365 85.032C77.9645 83.24 73.5698 82.344 67.8525 82.344H55.3085ZM55.3085 67.112H65.0365C71.1805 67.112 75.5752 66.344 78.2205 64.808C80.8658 63.1867 82.1885 60.6267 82.1885 57.128C82.1885 53.544 80.8232 51.0267 78.0925 49.576C75.3618 48.1253 71.3512 47.4 66.0605 47.4C64.3538 47.4 62.5192 47.4427 60.5565 47.528C58.5938 47.528 56.8445 47.6133 55.3085 47.784V67.112ZM132.221 76.584C132.221 80.936 132.733 84.8613 133.757 88.36C134.866 91.8587 136.402 94.888 138.365 97.448C140.413 99.9227 142.887 101.843 145.789 103.208C148.69 104.573 152.018 105.256 155.773 105.256C159.442 105.256 162.727 104.573 165.629 103.208C168.615 101.843 171.09 99.9227 173.053 97.448C175.101 94.888 176.637 91.8587 177.661 88.36C178.77 84.8613 179.325 80.936 179.325 76.584C179.325 72.232 178.77 68.3067 177.661 64.808C176.637 61.224 175.101 58.1947 173.053 55.72C171.09 53.16 168.615 51.1973 165.629 49.832C162.727 48.4667 159.442 47.784 155.773 47.784C152.018 47.784 148.69 48.5093 145.789 49.96C142.887 51.3253 140.413 53.288 138.365 55.848C136.402 58.3227 134.866 61.352 133.757 64.936C132.733 68.4347 132.221 72.3173 132.221 76.584ZM199.933 76.584C199.933 84.1787 198.781 90.8773 196.477 96.68C194.258 102.397 191.186 107.219 187.261 111.144C183.335 114.984 178.642 117.885 173.181 119.848C167.805 121.811 162.002 122.792 155.773 122.792C149.714 122.792 143.997 121.811 138.621 119.848C133.245 117.885 128.551 114.984 124.541 111.144C120.53 107.219 117.373 102.397 115.069 96.68C112.765 90.8773 111.613 84.1787 111.613 76.584C111.613 68.9893 112.807 62.3333 115.197 56.616C117.586 50.8133 120.786 45.9493 124.797 42.024C128.893 38.0987 133.586 35.1547 138.877 33.192C144.253 31.2293 149.885 30.248 155.773 30.248C161.831 30.248 167.549 31.2293 172.925 33.192C178.301 35.1547 182.994 38.0987 187.005 42.024C191.015 45.9493 194.173 50.8133 196.477 56.616C198.781 62.3333 199.933 68.9893 199.933 76.584ZM266.32 121C265.381 117.928 264.314 114.771 263.12 111.528C262.01 108.285 260.901 105.043 259.792 101.8H225.232C224.122 105.043 222.97 108.285 221.776 111.528C220.666 114.771 219.642 117.928 218.704 121H197.968C201.296 111.443 204.453 102.611 207.44 94.504C210.426 86.3973 213.328 78.76 216.144 71.592C219.045 64.424 221.861 57.64 224.592 51.24C227.408 44.7547 230.309 38.44 233.296 32.296H252.368C255.269 38.44 258.128 44.7547 260.944 51.24C263.76 57.64 266.576 64.424 269.392 71.592C272.293 78.76 275.237 86.3973 278.224 94.504C281.21 102.611 284.368 111.443 287.696 121H266.32ZM242.384 52.392C241.957 53.672 241.317 55.4213 240.464 57.64C239.61 59.8587 238.629 62.4187 237.52 65.32C236.41 68.2213 235.173 71.4213 233.808 74.92C232.528 78.4187 231.205 82.088 229.84 85.928H255.056C253.69 82.088 252.368 78.4187 251.088 74.92C249.808 71.4213 248.57 68.2213 247.376 65.32C246.266 62.4187 245.285 59.8587 244.432 57.64C243.578 55.4213 242.896 53.672 242.384 52.392ZM312.54 68.776C316.124 62.7173 319.537 56.6587 322.78 50.6C326.022 44.5413 329.009 38.44 331.74 32.296H353.756C348.892 41.8533 343.857 51.112 338.652 60.072C333.446 69.032 327.942 78.0347 322.14 87.08V121H302.172V87.336C296.369 78.2907 290.822 69.2453 285.532 60.2C280.326 51.1547 275.292 41.8533 270.428 32.296H293.596C296.326 38.44 299.27 44.5413 302.428 50.6C305.585 56.6587 308.956 62.7173 312.54 68.776ZM369.271 76.584C369.271 80.936 369.783 84.8613 370.807 88.36C371.916 91.8587 373.452 94.888 375.415 97.448C377.463 99.9227 379.937 101.843 382.839 103.208C385.74 104.573 389.068 105.256 392.823 105.256C396.492 105.256 399.777 104.573 402.679 103.208C405.665 101.843 408.14 99.9227 410.103 97.448C412.151 94.888 413.687 91.8587 414.711 88.36C415.82 84.8613 416.375 80.936 416.375 76.584C416.375 72.232 415.82 68.3067 414.711 64.808C413.687 61.224 412.151 58.1947 410.103 55.72C408.14 53.16 405.665 51.1973 402.679 49.832C399.777 48.4667 396.492 47.784 392.823 47.784C389.068 47.784 385.74 48.5093 382.839 49.96C379.937 51.3253 377.463 53.288 375.415 55.848C373.452 58.3227 371.916 61.352 370.807 64.936C369.783 68.4347 369.271 72.3173 369.271 76.584ZM436.983 76.584C436.983 84.1787 435.831 90.8773 433.527 96.68C431.308 102.397 428.236 107.219 424.311 111.144C420.385 114.984 415.692 117.885 410.231 119.848C404.855 121.811 399.052 122.792 392.823 122.792C386.764 122.792 381.047 121.811 375.671 119.848C370.295 117.885 365.601 114.984 361.591 111.144C357.58 107.219 354.423 102.397 352.119 96.68C349.815 90.8773 348.663 84.1787 348.663 76.584C348.663 68.9893 349.857 62.3333 352.247 56.616C354.636 50.8133 357.836 45.9493 361.847 42.024C365.943 38.0987 370.636 35.1547 375.927 33.192C381.303 31.2293 386.935 30.248 392.823 30.248C398.881 30.248 404.599 31.2293 409.975 33.192C415.351 35.1547 420.044 38.0987 424.055 42.024C428.065 45.9493 431.223 50.8133 433.527 56.616C435.831 62.3333 436.983 68.9893 436.983 76.584Z" fill="black"/>
</g>
<defs>
<clipPath id="clip0_11_10">
<rect width="469" height="147" fill="white"/>
</clipPath>
</defs>
</svg>
